<?xml version="1.0" encoding="UTF-8" standalone="no"?>
<!-- Created with Inkscape (http://www.inkscape.org/) -->

<svg
   xmlns:dc="http://purl.org/dc/elements/1.1/"
   xmlns:cc="http://creativecommons.org/ns#"
   xmlns:rdf="http://www.w3.org/1999/02/22-rdf-syntax-ns#"
   xmlns:svg="http://www.w3.org/2000/svg"
   xmlns="http://www.w3.org/2000/svg"
   xmlns:sodipodi="http://sodipodi.sourceforge.net/DTD/sodipodi-0.dtd"
   xmlns:inkscape="http://www.inkscape.org/namespaces/inkscape"
   version="1.1"
   id="svg2"
   width="227"
   height="160"
   viewBox="0 0 227 160"
   sodipodi:docname="pac-man-sprite.svg"
   inkscape:version="0.92.3 (2405546, 2018-03-11)">
  <metadata
     id="metadata8">
    <rdf:RDF>
      <cc:Work
         rdf:about="">
        <dc:format>image/svg+xml</dc:format>
        <dc:type
           rdf:resource="http://purl.org/dc/dcmitype/StillImage" />
        <dc:title />
      </cc:Work>
    </rdf:RDF>
  </metadata>
  <defs
     id="defs6" />
  <sodipodi:namedview
     pagecolor="#ffffff"
     bordercolor="#666666"
     borderopacity="1"
     objecttolerance="10"
     gridtolerance="10"
     guidetolerance="10"
     inkscape:pageopacity="0"
     inkscape:pageshadow="2"
     inkscape:window-width="1280"
     inkscape:window-height="938"
     id="namedview4"
     showgrid="false"
     inkscape:zoom="0.88466222"
     inkscape:cx="199.50767"
     inkscape:cy="141.57321"
     inkscape:window-x="-8"
     inkscape:window-y="-8"
     inkscape:window-maximized="1"
     inkscape:current-layer="svg2" />
  <path
     style="fill:#ff0000;fill-opacity:1;stroke:none;stroke-width:5.06036186px;stroke-linecap:butt;stroke-linejoin:miter;stroke-opacity:0.81909551"
     d="m 4.5125496,115.39045 v -13.63069 h 4.8735596 v -4.779598 h 5.5955298 v -5.133636 h 10.108089 v -5.310665 h 21.840678 v 5.310665 h 9.747089 v 5.48768 h 6.31756 v 4.425554 h 5.234539 v 15.40091 h 5.23455 v 42.13124 h -5.59554 v -5.48768 h -5.956549 v -5.31066 h -2.88802 v 5.31066 h -5.05406 v 3.54044 h -2.707509 v 2.30128 H 40.612857 v -11.15238 h -6.85906 v 10.62132 H 21.660208 v -4.42555 h -5.415049 v -7.08088 h -3.61005 v 6.90385 H 7.7615893 v 3.00938 H 5.5955395 V 160 H 1.6245299 v -3.1864 H 0 v -40.89208 z"
     id="path3715-5"
     inkscape:connector-curvature="0"
     sodipodi:nodetypes="cccccccccccccccccccccccccccccccccccccccccccccccc"
     inkscape:export-xdpi="96"
     inkscape:export-ydpi="96" />
  <path
     style="fill:#ffffff;fill-opacity:1;stroke:none;stroke-width:5.06036186px;stroke-linecap:butt;stroke-linejoin:miter;stroke-opacity:1"
     d="m 27.797248,108.66361 v -4.42555 h 7.581069 v 4.24854 h 4.87354 v 15.04687 h -4.33204 v 3.18639 h -7.039569 v -3.54044 h -5.59552 v -14.51581 z"
     id="path4522-0"
     inkscape:connector-curvature="0"
     inkscape:export-xdpi="96"
     inkscape:export-ydpi="96" />
  <path
     style="fill:#2121ff;fill-opacity:1;stroke:none;stroke-width:5.06036329px;stroke-linecap:butt;stroke-linejoin:miter;stroke-opacity:1"
     d="m 40.251857,112.73511 h -10.10808 v 10.79836 h 10.10808 z"
     id="path4524-3"
     inkscape:connector-curvature="0"
     inkscape:export-xdpi="96"
     inkscape:export-ydpi="96" />
  <path
     style="fill:#ffffff;fill-opacity:1;stroke:none;stroke-width:5.06036186px;stroke-linecap:butt;stroke-linejoin:miter;stroke-opacity:1"
     d="m 53.115135,108.60051 v -4.42554 h 7.58106 v 4.24852 h 4.873549 v 15.04688 h -4.332049 v 3.18639 h -7.03954 v -3.54044 h -5.595569 v -14.51581 z"
     id="path4522-2-2"
     inkscape:connector-curvature="0"
     inkscape:export-xdpi="96"
     inkscape:export-ydpi="96" />
  <path
     style="fill:#2121ff;fill-opacity:1;stroke:none;stroke-width:5.06036329px;stroke-linecap:butt;stroke-linejoin:miter;stroke-opacity:1"
     d="M 65.569744,112.67202 H 55.461655 v 10.79835 h 10.108089 z"
     id="path4524-2-0"
     inkscape:connector-curvature="0"
     inkscape:export-xdpi="96"
     inkscape:export-ydpi="96" />
  <path
     style="fill:#ff0000;fill-opacity:1;stroke:none;stroke-width:5.06036186px;stroke-linecap:butt;stroke-linejoin:miter;stroke-opacity:0.81909551"
     d="m 77.976673,115.39045 v -13.63069 h 4.87355 v -4.779598 h 5.595549 v -5.133636 h 10.10808 v -5.310665 h 21.840688 v 5.310665 h 9.74709 v 5.48768 h 6.31756 v 4.425554 h 5.23453 v 15.40091 h 5.23455 v 42.13124 h -5.59554 v -5.48768 h -5.95655 v -5.31066 h -2.88803 v 5.31066 h -5.05405 v 3.54044 h -2.70752 v 2.30128 h -10.64959 v -11.15238 h -6.85906 v 10.62132 H 95.124322 v -4.42555 h -5.41504 v -7.08088 h -3.610039 v 6.90385 h -4.87353 v 3.00938 h -2.16603 V 160 h -3.971029 v -3.1864 h -1.62451 v -40.89208 z"
     id="path3715-5-7"
     inkscape:connector-curvature="0"
     sodipodi:nodetypes="cccccccccccccccccccccccccccccccccccccccccccccccc"
     inkscape:export-xdpi="96"
     inkscape:export-ydpi="96" />
  <path
     style="fill:#ffffff;fill-opacity:1;stroke:none;stroke-width:5.06036186px;stroke-linecap:butt;stroke-linejoin:miter;stroke-opacity:1"
     d="m 101.26137,108.66361 v -4.42555 h 7.58107 v 4.24854 h 4.87355 v 15.04687 h -4.33205 v 3.18639 h -7.03956 v -3.54044 h -5.595538 v -14.51581 z"
     id="path4522-0-6"
     inkscape:connector-curvature="0"
     inkscape:export-xdpi="96"
     inkscape:export-ydpi="96" />
  <path
     style="fill:#2121ff;fill-opacity:1;stroke:none;stroke-width:5.06036329px;stroke-linecap:butt;stroke-linejoin:miter;stroke-opacity:1"
     d="M 113.71599,112.73511 H 103.6079 v 10.79836 h 10.10809 z"
     id="path4524-3-9"
     inkscape:connector-curvature="0"
     inkscape:export-xdpi="96"
     inkscape:export-ydpi="96" />
  <path
     style="fill:#ffffff;fill-opacity:1;stroke:none;stroke-width:5.06036186px;stroke-linecap:butt;stroke-linejoin:miter;stroke-opacity:1"
     d="m 126.57926,108.60051 v -4.42554 h 7.58107 v 4.24852 h 4.87354 v 15.04688 h -4.33204 v 3.18639 h -7.03956 v -3.54044 h -5.59555 v -14.51581 z"
     id="path4522-2-2-9"
     inkscape:connector-curvature="0"
     inkscape:export-xdpi="96"
     inkscape:export-ydpi="96" />
  <path
     style="fill:#2121ff;fill-opacity:1;stroke:none;stroke-width:5.06036329px;stroke-linecap:butt;stroke-linejoin:miter;stroke-opacity:1"
     d="m 139.03387,112.67202 h -10.10809 v 10.79835 h 10.10809 z"
     id="path4524-2-0-8"
     inkscape:connector-curvature="0"
     inkscape:export-xdpi="96"
     inkscape:export-ydpi="96" />
  <path
     style="fill:#ff0000;fill-opacity:1;stroke:none;stroke-width:5.06036186px;stroke-linecap:butt;stroke-linejoin:miter;stroke-opacity:0.81909551"
     d="m 362.80759,115.39045 v -13.63069 h -4.87355 v -4.7796 h -5.59555 v -5.13364 h -10.10808 v -5.31066 h -21.84067 v 5.31066 h -9.7471 v 5.48768 h -6.31755 v 4.42556 h -5.23454 v 15.40091 H 293.856 v 42.13124 h 5.59554 v -5.48768 h 5.95655 v -5.31066 h 2.88804 v 5.31066 h 5.05404 v 3.54044 h 2.70752 v 2.30128 h 10.64959 v -11.15238 h 6.85906 v 10.62132 h 12.0936 v -4.42555 h 5.41504 v -7.08088 h 3.61004 v 6.90385 h 4.87354 v 3.00938 h 2.16602 V 160 h 3.97103 v -3.1864 h 1.62452 v -40.89208 z"
     id="path3715-5-1"
     inkscape:connector-curvature="0"
     sodipodi:nodetypes="cccccccccccccccccccccccccccccccccccccccccccccccc"
     inkscape:export-xdpi="96"
     inkscape:export-ydpi="96" />
  <path
     style="fill:#ffffff;fill-opacity:1;stroke:none;stroke-width:5.06036186px;stroke-linecap:butt;stroke-linejoin:miter;stroke-opacity:1"
     d="m 339.52289,108.66361 v -4.42555 h -7.58107 v 4.24854 h -4.87354 v 15.04687 h 4.33204 v 3.18639 h 7.03956 v -3.54044 h 5.59555 v -14.51581 z"
     id="path4522-0-0"
     inkscape:connector-curvature="0"
     inkscape:export-xdpi="96"
     inkscape:export-ydpi="96" />
  <path
     style="fill:#2121ff;fill-opacity:1;stroke:none;stroke-width:5.06036329px;stroke-linecap:butt;stroke-linejoin:miter;stroke-opacity:1"
     d="m 327.06828,112.73511 h 10.10809 v 10.79836 h -10.10809 z"
     id="path4524-3-6"
     inkscape:connector-curvature="0"
     inkscape:export-xdpi="96"
     inkscape:export-ydpi="96" />
  <path
     style="fill:#ffffff;fill-opacity:1;stroke:none;stroke-width:5.06036186px;stroke-linecap:butt;stroke-linejoin:miter;stroke-opacity:1"
     d="m 314.20501,108.60051 v -4.42554 h -7.58107 v 4.24852 h -4.87354 v 15.04688 h 4.33205 v 3.18639 h 7.03956 v -3.54044 h 5.59554 v -14.51581 z"
     id="path4522-2-2-7"
     inkscape:connector-curvature="0"
     inkscape:export-xdpi="96"
     inkscape:export-ydpi="96" />
  <path
     style="fill:#2121ff;fill-opacity:1;stroke:none;stroke-width:5.06036329px;stroke-linecap:butt;stroke-linejoin:miter;stroke-opacity:1"
     d="m 301.7504,112.67202 h 10.10809 v 10.79835 H 301.7504 Z"
     id="path4524-2-0-0"
     inkscape:connector-curvature="0"
     inkscape:export-xdpi="96"
     inkscape:export-ydpi="96" />
  <path
     style="fill:#ff0000;fill-opacity:1;stroke:none;stroke-width:5.06036186px;stroke-linecap:butt;stroke-linejoin:miter;stroke-opacity:0.81909551"
     d="m 436.27172,115.39045 v -13.63069 h -4.87355 v -4.7796 h -5.59554 v -5.13364 h -10.10809 v -5.31066 h -21.84069 v 5.31066 h -9.74709 v 5.48768 h -6.31755 v 4.42556 h -5.23454 v 15.40091 h -5.23454 v 42.13124 h 5.59553 v -5.48768 h 5.95656 v -5.31066 h 2.88803 v 5.31066 h 5.05404 v 3.54044 h 2.70752 v 2.30128 h 10.6496 v -11.15238 h 6.85906 v 10.62132 h 12.0936 v -4.42555 h 5.41504 v -7.08088 h 3.61004 v 6.90385 h 4.87354 v 3.00938 h 2.16602 V 160 h 3.97103 v -3.1864 h 1.62451 v -40.89208 z"
     id="path3715-5-1-1"
     inkscape:connector-curvature="0"
     sodipodi:nodetypes="cccccccccccccccccccccccccccccccccccccccccccccccc"
     inkscape:export-xdpi="96"
     inkscape:export-ydpi="96" />
  <path
     style="fill:#ffffff;fill-opacity:1;stroke:none;stroke-width:5.06036186px;stroke-linecap:butt;stroke-linejoin:miter;stroke-opacity:1"
     d="m 412.98701,108.66361 v -4.42555 h -7.58106 v 4.24854 h -4.87354 v 15.04687 h 4.33204 v 3.18639 h 7.03956 v -3.54044 h 5.59554 v -14.51581 z"
     id="path4522-0-0-0"
     inkscape:connector-curvature="0"
     inkscape:export-xdpi="96"
     inkscape:export-ydpi="96" />
  <path
     style="fill:#2121ff;fill-opacity:1;stroke:none;stroke-width:5.06036329px;stroke-linecap:butt;stroke-linejoin:miter;stroke-opacity:1"
     d="m 400.53241,112.73511 h 10.10808 v 10.79836 h -10.10808 z"
     id="path4524-3-6-6"
     inkscape:connector-curvature="0"
     inkscape:export-xdpi="96"
     inkscape:export-ydpi="96" />
  <path
     style="fill:#ffffff;fill-opacity:1;stroke:none;stroke-width:5.06036186px;stroke-linecap:butt;stroke-linejoin:miter;stroke-opacity:1"
     d="m 387.66912,108.60051 v -4.42554 h -7.58105 v 4.24852 h -4.87354 v 15.04688 h 4.33204 v 3.18639 h 7.03955 v -3.54044 h 5.59555 v -14.51581 z"
     id="path4522-2-2-7-4"
     inkscape:connector-curvature="0"
     inkscape:export-xdpi="96"
     inkscape:export-ydpi="96" />
  <path
     style="fill:#2121ff;fill-opacity:1;stroke:none;stroke-width:5.06036329px;stroke-linecap:butt;stroke-linejoin:miter;stroke-opacity:1"
     d="m 375.21453,112.67202 h 10.10808 v 10.79835 h -10.10808 z"
     id="path4524-2-0-0-7"
     inkscape:connector-curvature="0"
     inkscape:export-xdpi="96"
     inkscape:export-ydpi="96" />
  <path
     style="fill:#ff0000;fill-opacity:1;stroke:none;stroke-width:5.06036186px;stroke-linecap:butt;stroke-linejoin:miter;stroke-opacity:0.81909551"
     d="m 445.29654,115.39045 v -13.63069 h 4.87355 v -4.779599 h 5.59554 v -5.13363 h 10.10809 v -5.31067 h 21.84067 v 5.31067 h 9.74709 v 5.48768 h 6.31756 v 4.425549 h 5.23454 v 15.40091 h 5.23453 v 42.13124 h -5.59553 v -5.48768 h -5.95654 v -5.31066 H 499.808 v 5.31066 h -5.05404 v 3.54044 h -2.70752 v 2.30128 h -10.64959 v -11.15238 h -6.85906 v 10.62132 h -12.0936 v -4.42555 h -5.41505 v -7.08088 h -3.61003 v 6.90385 h -4.87354 v 3.00938 h -2.16602 V 160 h -3.97103 v -3.1864 H 440.784 v -40.89208 z"
     id="path3715-5-1-1-3"
     inkscape:connector-curvature="0"
     sodipodi:nodetypes="cccccccccccccccccccccccccccccccccccccccccccccccc"
     inkscape:export-xdpi="96"
     inkscape:export-ydpi="96" />
  <path
     style="fill:#ffffff;fill-opacity:1;stroke:none;stroke-width:5.06036186px;stroke-linecap:butt;stroke-linejoin:miter;stroke-opacity:1"
     d="m 459.689,97.574331 v -4.42554 h 7.58106 v 4.24852 h 4.87355 v 15.046879 h -4.33204 v 3.18639 h -7.03956 v -3.54044 h -5.59554 V 97.574331 Z"
     id="path4522-0-0-0-6"
     inkscape:connector-curvature="0"
     inkscape:export-xdpi="96"
     inkscape:export-ydpi="96" />
  <path
     style="fill:#2121ff;fill-opacity:1;stroke:none;stroke-width:5.06036329px;stroke-linecap:butt;stroke-linejoin:miter;stroke-opacity:1"
     d="m 468.68353,93.168631 h -10.10809 v 10.798349 h 10.10809 z"
     id="path4524-3-6-6-8"
     inkscape:connector-curvature="0"
     inkscape:export-xdpi="96"
     inkscape:export-ydpi="96" />
  <path
     style="fill:#ffffff;fill-opacity:1;stroke:none;stroke-width:5.06036186px;stroke-linecap:butt;stroke-linejoin:miter;stroke-opacity:1"
     d="m 485.00688,97.511231 v -4.42554 h 7.58106 v 4.24852 h 4.87354 v 15.046869 h -4.33204 v 3.1864 h -7.03956 v -3.54045 h -5.59555 V 97.511231 Z"
     id="path4522-2-2-7-4-7"
     inkscape:connector-curvature="0"
     inkscape:export-xdpi="96"
     inkscape:export-ydpi="96" />
  <path
     style="fill:#2121ff;fill-opacity:1;stroke:none;stroke-width:5.06036329px;stroke-linecap:butt;stroke-linejoin:miter;stroke-opacity:1"
     d="m 493.79897,93.085691 h -10.10808 v 10.798339 h 10.10808 z"
     id="path4524-2-0-0-7-9"
     inkscape:connector-curvature="0"
     inkscape:export-xdpi="96"
     inkscape:export-ydpi="96" />
  <path
     style="fill:#ff0000;fill-opacity:1;stroke:none;stroke-width:5.06036186px;stroke-linecap:butt;stroke-linejoin:miter;stroke-opacity:0.81909551"
     d="m 518.76066,115.39045 v -13.63069 h 4.87355 v -4.779599 h 5.59553 v -5.13363 h 10.10811 v -5.31067 h 21.84069 v 5.31067 h 9.7471 v 5.48768 h 6.31752 v 4.425549 h 5.23457 v 15.40091 h 5.23452 v 42.13124 h -5.59553 v -5.48768 h -5.95657 v -5.31066 h -2.88801 v 5.31066 h -5.05406 v 3.54044 h -2.70752 v 2.30128 h -10.64959 v -11.15238 h -6.85907 v 10.62132 h -12.09358 v -4.42555 h -5.41504 v -7.08088 h -3.61006 v 6.90385 h -4.87355 v 3.00938 h -2.16599 V 160 h -3.97106 v -3.1864 h -1.62451 v -40.89208 z"
     id="path3715-5-1-1-3-5"
     inkscape:connector-curvature="0"
     sodipodi:nodetypes="cccccccccccccccccccccccccccccccccccccccccccccccc"
     inkscape:export-xdpi="96"
     inkscape:export-ydpi="96" />
  <path
     style="fill:#ffffff;fill-opacity:1;stroke:none;stroke-width:5.06036186px;stroke-linecap:butt;stroke-linejoin:miter;stroke-opacity:1"
     d="m 533.15312,97.574331 v -4.42554 h 7.58109 v 4.24852 h 4.87353 v 15.046879 h -4.33205 v 3.18639 h -7.03955 v -3.54044 h -5.59556 V 97.574331 Z"
     id="path4522-0-0-0-6-0"
     inkscape:connector-curvature="0"
     inkscape:export-xdpi="96"
     inkscape:export-ydpi="96" />
  <path
     style="fill:#2121ff;fill-opacity:1;stroke:none;stroke-width:5.06036329px;stroke-linecap:butt;stroke-linejoin:miter;stroke-opacity:1"
     d="m 542.14765,93.168631 h -10.1081 v 10.798349 h 10.1081 z"
     id="path4524-3-6-6-8-1"
     inkscape:connector-curvature="0"
     inkscape:export-xdpi="96"
     inkscape:export-ydpi="96" />
  <path
     style="fill:#ffffff;fill-opacity:1;stroke:none;stroke-width:5.06036186px;stroke-linecap:butt;stroke-linejoin:miter;stroke-opacity:1"
     d="m 558.47102,97.511231 v -4.42554 h 7.58107 v 4.24852 h 4.87355 v 15.046869 h -4.33207 v 3.1864 h -7.03955 v -3.54045 h -5.59555 V 97.511231 Z"
     id="path4522-2-2-7-4-7-4"
     inkscape:connector-curvature="0"
     inkscape:export-xdpi="96"
     inkscape:export-ydpi="96" />
  <path
     style="fill:#2121ff;fill-opacity:1;stroke:none;stroke-width:5.06036329px;stroke-linecap:butt;stroke-linejoin:miter;stroke-opacity:1"
     d="m 567.26312,93.085691 h -10.10811 v 10.798339 h 10.10811 z"
     id="path4524-2-0-0-7-9-5"
     inkscape:connector-curvature="0"
     inkscape:export-xdpi="96"
     inkscape:export-ydpi="96" />
  <path
     style="fill:#ff0000;fill-opacity:1;stroke:none;stroke-width:5.06036186px;stroke-linecap:butt;stroke-linejoin:miter;stroke-opacity:0.81909551"
     d="m 151.44056,115.39045 v -13.63069 h 4.87352 v -4.779595 h 5.59552 v -5.13364 h 10.10811 v -5.31066 h 21.84069 v 5.31066 h 9.74706 v 5.48768 h 6.31759 v 4.425545 h 5.23453 v 15.40091 h 5.23454 v 42.13125 h -5.59557 v -5.48769 h -5.95649 v -5.31066 h -2.88805 v 5.31066 h -5.05402 v 3.54045 h -2.70758 v 2.30128 h -10.64959 v -11.15239 h -6.85907 v 10.62133 h -12.09356 v -4.42556 h -5.41507 v -7.08088 h -3.61004 v 6.90386 h -4.8735 v 3.00938 h -2.16602 V 160 h -3.97104 v -3.1864 H 146.928 v -40.89208 z"
     id="path3715-5-1-1-3-5-6"
     inkscape:connector-curvature="0"
     sodipodi:nodetypes="cccccccccccccccccccccccccccccccccccccccccccccccc"
     inkscape:export-xdpi="96"
     inkscape:export-ydpi="96" />
  <path
     style="fill:#ffffff;fill-opacity:1;stroke:none;stroke-width:5.06036186px;stroke-linecap:butt;stroke-linejoin:miter;stroke-opacity:1"
     d="m 165.833,109.57433 v -4.42554 h 7.58107 v 4.24852 h 4.87357 v 15.04688 h -4.33209 v 3.18638 h -7.03953 v -3.54043 h -5.59557 v -14.51581 z"
     id="path4522-0-0-0-6-0-9"
     inkscape:connector-curvature="0"
     inkscape:export-xdpi="96"
     inkscape:export-ydpi="96" />
  <path
     style="fill:#2121ff;fill-opacity:1;stroke:none;stroke-width:5.06036329px;stroke-linecap:butt;stroke-linejoin:miter;stroke-opacity:1"
     d="M 175.08009,116.83222 H 164.972 v 10.79835 h 10.10809 z"
     id="path4524-3-6-6-8-1-0"
     inkscape:connector-curvature="0"
     inkscape:export-xdpi="96"
     inkscape:export-ydpi="96" />
  <path
     style="fill:#ffffff;fill-opacity:1;stroke:none;stroke-width:5.06036186px;stroke-linecap:butt;stroke-linejoin:miter;stroke-opacity:1"
     d="m 191.15089,109.51122 v -4.42554 h 7.58107 v 4.24852 h 4.8735 v 15.04688 h -4.33204 v 3.1864 h -7.0395 v -3.54045 h -5.5956 v -14.51581 z"
     id="path4522-2-2-7-4-7-4-5"
     inkscape:connector-curvature="0"
     inkscape:export-xdpi="96"
     inkscape:export-ydpi="96" />
  <path
     style="fill:#2121ff;fill-opacity:1;stroke:none;stroke-width:5.06036329px;stroke-linecap:butt;stroke-linejoin:miter;stroke-opacity:1"
     d="m 200.46202,116.76346 h -10.10814 v 10.79835 h 10.10814 z"
     id="path4524-2-0-0-7-9-5-1"
     inkscape:connector-curvature="0"
     inkscape:export-xdpi="96"
     inkscape:export-ydpi="96" />
  <path
     style="fill:#ff0000;fill-opacity:1;stroke:none;stroke-width:5.06036186px;stroke-linecap:butt;stroke-linejoin:miter;stroke-opacity:0.81909551"
     d="m 224.9047,115.39045 v -13.63069 h 4.87356 v -4.779595 h 5.59549 v -5.13364 h 10.10807 v -5.31066 h 21.84072 v 5.31066 h 9.74705 v 5.48768 h 6.31757 v 4.425545 h 5.23452 v 15.40091 h 5.23455 v 42.13125 h -5.59555 v -5.48769 h -5.9565 v -5.31066 h -2.88805 v 5.31066 h -5.05402 v 3.54045 h -2.70754 v 2.30128 H 261.005 v -11.15239 h -6.85904 v 10.62133 h -12.09361 v -4.42556 h -5.41503 v -7.08088 h -3.61004 v 6.90386 h -4.87356 v 3.00938 h -2.166 V 160 h -3.97108 v -3.1864 h -1.62452 v -40.89208 z"
     id="path3715-5-1-1-3-5-6-0"
     inkscape:connector-curvature="0"
     sodipodi:nodetypes="cccccccccccccccccccccccccccccccccccccccccccccccc"
     inkscape:export-xdpi="96"
     inkscape:export-ydpi="96" />
  <path
     style="fill:#ffffff;fill-opacity:1;stroke:none;stroke-width:5.06036186px;stroke-linecap:butt;stroke-linejoin:miter;stroke-opacity:1"
     d="m 239.29715,109.57433 v -4.42554 h 7.58104 v 4.24852 h 4.87355 v 15.04688 h -4.332 v 3.18638 h -7.03962 v -3.54043 h -5.59548 v -14.51581 z"
     id="path4522-0-0-0-6-0-9-6"
     inkscape:connector-curvature="0"
     inkscape:export-xdpi="96"
     inkscape:export-ydpi="96" />
  <path
     style="fill:#2121ff;fill-opacity:1;stroke:none;stroke-width:5.06036329px;stroke-linecap:butt;stroke-linejoin:miter;stroke-opacity:1"
     d="m 248.54421,116.83222 h -10.10807 v 10.79835 h 10.10807 z"
     id="path4524-3-6-6-8-1-0-1"
     inkscape:connector-curvature="0"
     inkscape:export-xdpi="96"
     inkscape:export-ydpi="96" />
  <path
     style="fill:#ffffff;fill-opacity:1;stroke:none;stroke-width:5.06036186px;stroke-linecap:butt;stroke-linejoin:miter;stroke-opacity:1"
     d="m 264.61505,109.51122 v -4.42554 h 7.58104 v 4.24852 h 4.8735 v 15.04688 h -4.33203 v 3.1864 h -7.03949 v -3.54045 h -5.59564 v -14.51581 z"
     id="path4522-2-2-7-4-7-4-5-8"
     inkscape:connector-curvature="0"
     inkscape:export-xdpi="96"
     inkscape:export-ydpi="96" />
  <path
     style="fill:#2121ff;fill-opacity:1;stroke:none;stroke-width:5.06036329px;stroke-linecap:butt;stroke-linejoin:miter;stroke-opacity:1"
     d="m 273.92612,116.76346 h -10.10806 v 10.79835 h 10.10806 z"
     id="path4524-2-0-0-7-9-5-1-2"
     inkscape:connector-curvature="0"
     inkscape:export-xdpi="96"
     inkscape:export-ydpi="96" />
</svg>
